HIERARCHY
ROOT reference
{
  OFFSET -65.3212 -1.93545 -120.338
  CHANNELS 6 Xposition Yposition Zposition Zrotation Xrotation Yrotation
  JOINT Hips
  {
    OFFSET 0 78.7191 0
    CHANNELS 6 Xposition Yposition Zposition Zrotation Xrotation Yrotation
    JOINT Chest
    {
      OFFSET 0 8.7983 -4.7612
      CHANNELS 6 Xposition Yposition Zposition Zrotation Xrotation Yrotation
      JOINT Chest2
      {
        OFFSET 0 8.0291 0.4195
        CHANNELS 6 Xposition Yposition Zposition Zrotation Xrotation Yrotation
        JOINT Chest3
        {
          OFFSET 0 9.9351 -2.2114
          CHANNELS 6 Xposition Yposition Zposition Zrotation Xrotation Yrotation
          JOINT Neck
          {
            OFFSET 0 22.3885 -0.4656
            CHANNELS 6 Xposition Yposition Zposition Zrotation Xrotation Yrotation
            JOINT Head
            {
              OFFSET -0.0001 12.643 3.4389
              CHANNELS 6 Xposition Yposition Zposition Zrotation Xrotation Yrotation
              End Site
              {
                OFFSET 0.0001 17.6655 0.5274
              }
            }
          }
          JOINT LeftCollar
          {
            OFFSET 2.2603 21.606 7.4023
            CHANNELS 6 Xposition Yposition Zposition Zrotation Xrotation Yrotation
            JOINT LeftShoulder
            {
              OFFSET 13.5163 -1.1332 -5.0146
              CHANNELS 6 Xposition Yposition Zposition Zrotation Xrotation Yrotation
              JOINT LeftElbow
              {
                OFFSET -0.0995 -28.05 -0.2431
                CHANNELS 6 Xposition Yposition Zposition Zrotation Xrotation Yrotation
                JOINT LeftWrist
                {
                  OFFSET 0.0679 -23.3996 -0.1402
                  CHANNELS 6 Xposition Yposition Zposition Zrotation Xrotation Yrotation
                  JOINT LeftFinger1
                  {
                    OFFSET 0.7932 -9.069 2.5189
                    CHANNELS 6 Xposition Yposition Zposition Zrotation Xrotation Yrotation
                    JOINT LeftFinger11
                    {
                      OFFSET -0.8272 -3.3923 0.5977
                      CHANNELS 6 Xposition Yposition Zposition Zrotation Xrotation Yrotation
                      JOINT LeftFinger12
                      {
                        OFFSET -0.5649 -2.3158 0.4082
                        CHANNELS 6 Xposition Yposition Zposition Zrotation Xrotation Yrotation
                        End Site
                        {
                          OFFSET -0.4919 -1.6479 0.2673
                        }
                      }
                    }
                  }
                  JOINT LeftFinger2
                  {
                    OFFSET 0.9159 -9.2044 0.2193
                    CHANNELS 6 Xposition Yposition Zposition Zrotation Xrotation Yrotation
                    JOINT LeftFinger21
                    {
                      OFFSET 0.0117 -4.1944 -0.0248
                      CHANNELS 6 Xposition Yposition Zposition Zrotation Xrotation Yrotation
                      JOINT LeftFinger22
                      {
                        OFFSET 0.0071 -2.3249 -0.0142
                        CHANNELS 6 Xposition Yposition Zposition Zrotation Xrotation Yrotation
                        End Site
                        {
                          OFFSET -0.1475 -2.0882 0.0028
                        }
                      }
                    }
                  }
                  JOINT LeftFinger3
                  {
                    OFFSET 0.6113 -8.7231 -2.0637
                    CHANNELS 6 Xposition Yposition Zposition Zrotation Xrotation Yrotation
                    JOINT LeftFinger31
                    {
                      OFFSET -0.1927 -3.8059 -0.2383
                      CHANNELS 6 Xposition Yposition Zposition Zrotation Xrotation Yrotation
                      JOINT LeftFinger32
                      {
                        OFFSET -0.1091 -2.1688 -0.1362
                        CHANNELS 6 Xposition Yposition Zposition Zrotation Xrotation Yrotation
                        End Site
                        {
                          OFFSET -0.2358 -1.9176 -0.0906
                        }
                      }
                    }
                  }
                  JOINT LeftFinger4
                  {
                    OFFSET -0.6151 -8.0947 -3.5641
                    CHANNELS 6 Xposition Yposition Zposition Zrotation Xrotation Yrotation
                    JOINT LeftFinger41
                    {
                      OFFSET -0.4882 -2.341 -0.6462
                      CHANNELS 6 Xposition Yposition Zposition Zrotation Xrotation Yrotation
                      JOINT LeftFinger42
                      {
                        OFFSET -0.3575 -1.7167 -0.4742
                        CHANNELS 6 Xposition Yposition Zposition Zrotation Xrotation Yrotation
                        End Site
                        {
                          OFFSET -0.4187 -1.5237 -0.3496
                        }
                      }
                    }
                  }
                  JOINT LeftFinger0
                  {
                    OFFSET -1.42 -1.8761 1.4223
                    CHANNELS 6 Xposition Yposition Zposition Zrotation Xrotation Yrotation
                    JOINT LeftFinger01
                    {
                      OFFSET -1.1471 -3.4929 2.6334
                      CHANNELS 6 Xposition Yposition Zposition Zrotation Xrotation Yrotation
                      JOINT LeftFinger02
                      {
                        OFFSET -0.823 -2.3 1.6571
                        CHANNELS 6 Xposition Yposition Zposition Zrotation Xrotation Yrotation
                        End Site
                        {
                          OFFSET -0.5822 -1.6914 1.1582
                        }
                      }
                    }
                  }
                }
              }
            }
          }
          JOINT RightCollar
          {
            OFFSET -2.2603 21.606 7.4023
            CHANNELS 6 Xposition Yposition Zposition Zrotation Xrotation Yrotation
            JOINT RightShoulder
            {
              OFFSET -13.5187 -1.1334 -5.0155
              CHANNELS 6 Xposition Yposition Zposition Zrotation Xrotation Yrotation
              JOINT RightElbow
              {
                OFFSET 0.0994 -28.0499 -0.2431
                CHANNELS 6 Xposition Yposition Zposition Zrotation Xrotation Yrotation
                JOINT RightWrist
                {
                  OFFSET -0.0679 -23.3996 -0.1402
                  CHANNELS 6 Xposition Yposition Zposition Zrotation Xrotation Yrotation
                  JOINT RightFinger1
                  {
                    OFFSET -0.7932 -9.0691 2.5189
                    CHANNELS 6 Xposition Yposition Zposition Zrotation Xrotation Yrotation
                    JOINT RightFinger11
                    {
                      OFFSET 0.8272 -3.3923 0.5977
                      CHANNELS 6 Xposition Yposition Zposition Zrotation Xrotation Yrotation
                      JOINT RightFinger12
                      {
                        OFFSET 0.565 -2.3158 0.4082
                        CHANNELS 6 Xposition Yposition Zposition Zrotation Xrotation Yrotation
                        End Site
                        {
                          OFFSET 0.4919 -1.6479 0.2673
                        }
                      }
                    }
                  }
                  JOINT RightFinger2
                  {
                    OFFSET -0.916 -9.2044 0.2193
                    CHANNELS 6 Xposition Yposition Zposition Zrotation Xrotation Yrotation
                    JOINT RightFinger21
                    {
                      OFFSET -0.0117 -4.1944 -0.0248
                      CHANNELS 6 Xposition Yposition Zposition Zrotation Xrotation Yrotation
                      JOINT RightFinger22
                      {
                        OFFSET -0.0071 -2.3249 -0.0142
                        CHANNELS 6 Xposition Yposition Zposition Zrotation Xrotation Yrotation
                        End Site
                        {
                          OFFSET 0.1475 -2.0882 0.0028
                        }
                      }
                    }
                  }
                  JOINT RightFinger3
                  {
                    OFFSET -0.6113 -8.7231 -2.0637
                    CHANNELS 6 Xposition Yposition Zposition Zrotation Xrotation Yrotation
                    JOINT RightFinger31
                    {
                      OFFSET 0.1927 -3.8059 -0.2383
                      CHANNELS 6 Xposition Yposition Zposition Zrotation Xrotation Yrotation
                      JOINT RightFinger32
                      {
                        OFFSET 0.1091 -2.1688 -0.1362
                        CHANNELS 6 Xposition Yposition Zposition Zrotation Xrotation Yrotation
                        End Site
                        {
                          OFFSET 0.2358 -1.9176 -0.0906
                        }
                      }
                    }
                  }
                  JOINT RightFinger4
                  {
                    OFFSET 0.6151 -8.0947 -3.564
                    CHANNELS 6 Xposition Yposition Zposition Zrotation Xrotation Yrotation
                    JOINT RightFinger41
                    {
                      OFFSET 0.4882 -2.341 -0.6462
                      CHANNELS 6 Xposition Yposition Zposition Zrotation Xrotation Yrotation
                      JOINT RightFinger42
                      {
                        OFFSET 0.3574 -1.7166 -0.4742
                        CHANNELS 6 Xposition Yposition Zposition Zrotation Xrotation Yrotation
                        End Site
                        {
                          OFFSET 0.4187 -1.5237 -0.3496
                        }
                      }
                    }
                  }
                  JOINT RightFinger0
                  {
                    OFFSET 1.4199 -1.8761 1.4221
                    CHANNELS 6 Xposition Yposition Zposition Zrotation Xrotation Yrotation
                    JOINT RightFinger01
                    {
                      OFFSET 1.1472 -3.4929 2.6336
                      CHANNELS 6 Xposition Yposition Zposition Zrotation Xrotation Yrotation
                      JOINT RightFinger02
                      {
                        OFFSET 0.8229 -2.3 1.6571
                        CHANNELS 6 Xposition Yposition Zposition Zrotation Xrotation Yrotation
                        End Site
                        {
                          OFFSET 0.5822 -1.6914 1.1582
                        }
                      }
                    }
                  }
                }
              }
            }
          }
        }
      }
    }
    JOINT RightHip
    {
      OFFSET -9.412 3.9771 -0.7758
      CHANNELS 6 Xposition Yposition Zposition Zrotation Xrotation Yrotation
      JOINT RightKnee
      {
        OFFSET -0.7531 -40.938 0
        CHANNELS 6 Xposition Yposition Zposition Zrotation Xrotation Yrotation
        JOINT RightAnkle
        {
          OFFSET 0 -40.1986 0
          CHANNELS 6 Xposition Yposition Zposition Zrotation Xrotation Yrotation
          JOINT RightToe
          {
            OFFSET 0 -4.4182 9.239
            CHANNELS 6 Xposition Yposition Zposition Zrotation Xrotation Yrotation
            End Site
            {
              OFFSET 0 0 6.1981
            }
          }
        }
      }
    }
    JOINT LeftHip
    {
      OFFSET 9.4119 3.9773 -0.7758
      CHANNELS 6 Xposition Yposition Zposition Zrotation Xrotation Yrotation
      JOINT LeftKnee
      {
        OFFSET 0.7532 -40.9383 0
        CHANNELS 6 Xposition Yposition Zposition Zrotation Xrotation Yrotation
        JOINT LeftAnkle
        {
          OFFSET 0 -40.1986 0
          CHANNELS 6 Xposition Yposition Zposition Zrotation Xrotation Yrotation
          JOINT LeftToe
          {
            OFFSET 0 -4.4182 9.239
            CHANNELS 6 Xposition Yposition Zposition Zrotation Xrotation Yrotation
            End Site
            {
              OFFSET 0 0 6.1981
            }
          }
        }
      }
    }
  }
}
MOTION
Frames:	4
Frame Time:	0.0333333
0.940029 -1.35579 1.27838 0 0 -0 4.77396e-015 78.7191 0 -11.4141 -3.07916 -11.8987 1.77636e-015 8.7983 -4.7612 3.68046 0.63404 -1.45172 0 8.0291 0.4195 7.37641 1.17338 -2.94142 8.88179e-016 9.9351 -2.2114 7.37643 1.17338 -2.94143 3.55271e-015 22.3885 -0.4656 0.896691 -5.05403 -8.10488 -0.0001 12.643 3.4389 13.9653 -0.534693 -0.365429 2.2603 21.606 7.4023 0.761215 -0.0219772 -12.8115 13.5163 -1.1332 -5.0146 -7.78996 23.8296 30.5052 -0.0995 -28.05 -0.2431 -12.4626 -44.2548 12.9273 0.0679 -23.3996 -0.1402 -0.100191 -0.313902 -1.62351 0.7932 -9.069 2.5189 1.86511e-006 9.28535e-007 8.33898e-006 -0.8272 -3.3923 0.5977 -9.96941e-006 -2.11142e-006 -1.1948e-005 -0.5649 -2.3158 0.4082 2.2089e-005 6.73174e-006 2.2814e-006 0.9159 -9.2044 0.2193 2.03583e-006 5.64027e-006 7.20279e-006 0.0117 -4.1944 -0.0248 -0.0127993 0.00233596 9.59419e-005 0.0071 -2.3249 -0.0142 6.7745e-005 9.40044e-005 0.000159184 0.6113 -8.7231 -2.0637 1.5794e-005 -2.92475e-006 1.08551e-005 -0.1927 -3.8059 -0.2383 -0.0160291 0.00299497 0.000842164 -0.1091 -2.1688 -0.1362 5.06398e-005 3.99605e-005 5.00358e-005 -0.6151 -8.0947 -3.5641 7.91891e-006 -9.67385e-006 -2.19359e-005 -0.4882 -2.341 -0.6462 -0.0125294 0.00311906 0.00281319 -0.3575 -1.7167 -0.4742 4.51532e-005 2.76997e-005 3.1684e-005 -1.42 -1.8761 1.4223 4.35447e-005 -6.64764e-006 -0.000147225 -1.1471 -3.4929 2.6334 -1.44663e-005 1.08286e-005 2.40477e-005 -0.823 -2.3 1.6571 2.1642e-007 -1.23273e-006 3.24821e-005 -2.2603 21.606 7.4023 -0.793449 0.156994 7.21846 -13.5187 -1.1334 -5.0155 -12.3973 10.6676 -25.1475 0.0994 -28.0499 -0.2431 10.5379 -44.9388 -2.33427 -0.0679 -23.3996 -0.1402 7.06889 -9.60695 -28.4505 -0.7932 -9.0691 2.5189 2.39256e-005 3.03071e-005 0.000157715 0.8272 -3.3923 0.5977 -6.31385e-007 -2.37055e-005 -6.34867e-006 0.565 -2.3158 0.4082 -8.07487e-006 1.11747e-006 -1.63139e-006 -0.916 -9.2044 0.2193 4.41959e-005 -2.25286e-005 6.93656e-005 -0.0117 -4.1944 -0.0248 0.0129704 0.00232838 -0.000119073 -0.0071 -2.3249 -0.0142 0.00114232 -0.00310271 -0.00377452 -0.6113 -8.7231 -2.0637 5.99801e-005 -3.18073e-005 3.3138e-005 0.1927 -3.8059 -0.2383 0.0163173 0.00310011 -0.0009137 0.1091 -2.1688 -0.1362 -7.51427e-006 -9.89071e-006 3.42838e-005 0.6151 -8.0947 -3.564 4.67546e-005 -1.94261e-005 2.06653e-005 0.4882 -2.341 -0.6462 0.0145281 0.00372237 -0.00331 0.3574 -1.7166 -0.4742 -1.65478e-005 3.37035e-005 -2.15726e-006 1.4199 -1.8761 1.4221 4.03411e-005 -5.76558e-006 -0.000100085 1.1472 -3.4929 2.6336 1.06003e-005 -7.3955e-006 -4.2876e-007 0.8229 -2.3 1.6571 1.57178e-005 1.95964e-005 -6.66083e-006 -9.412 3.9771 -0.7758 15.864 10.5876 9.86557 -0.7531 -40.938 -8.88179e-016 0.304598 0.107664 4.22977 2.22045e-016 -40.1986 0 -3.74555 -5.22895 -15.8814 -2.22045e-016 -4.4182 9.23901 0.126757 0.861433 -0.0506006 9.4119 3.9773 -0.7758 20.5071 -10.05 8.00594 0.7532 -40.9383 -3.55271e-015 1.0201 20.341 4.0513 0 -40.1986 0 -8.84304 -2.92323 -0.149101 0 -4.4182 9.239 0.493963 -3.68854 0.0159185 
0.938762 -1.35217 1.2788 0 0 -0 4.77396e-015 78.7191 0 -11.4056 -3.06334 -11.9759 0 8.7983 -4.7612 3.68521 0.66153 -1.45663 -8.88179e-016 8.0291 0.4195 7.38669 1.22785 -2.95302 -8.88179e-016 9.9351 -2.2114 7.38671 1.22786 -2.95303 0 22.3885 -0.4656 0.904755 -4.92335 -8.11447 -0.0001 12.643 3.4389 14.0068 -0.395057 -0.360202 2.2603 21.606 7.4023 0.724014 -0.0218928 -12.8093 13.5163 -1.1332 -5.0146 -7.88982 23.95 30.5642 -0.0995 -28.05 -0.2431 -12.6312 -44.3902 12.7989 0.0679 -23.3996 -0.1402 -0.0900939 -0.394004 -1.74277 0.7932 -9.069 2.5189 -1.23767e-006 4.6257e-006 7.78468e-006 -0.8272 -3.3923 0.5977 -2.58214e-006 -9.52221e-007 6.54535e-006 -0.5649 -2.3158 0.4082 2.9463e-005 4.56994e-006 1.86326e-005 0.9159 -9.2044 0.2193 -1.46625e-005 -6.58293e-006 4.84893e-005 0.0117 -4.1944 -0.0248 -0.012834 0.00234268 0.000123191 0.0071 -2.3249 -0.0142 2.48983e-005 -1.78825e-005 -5.66969e-006 0.6113 -8.7231 -2.0637 -6.27484e-006 -6.34585e-006 3.72727e-005 -0.1927 -3.8059 -0.2383 -0.0160764 0.00300589 0.000847104 -0.1091 -2.1688 -0.1362 6.48661e-005 8.91363e-005 9.0953e-005 -0.6151 -8.0947 -3.5641 4.18841e-006 -9.35031e-006 -2.3874e-005 -0.4882 -2.341 -0.6462 -0.0125883 0.0031234 0.00283044 -0.3575 -1.7167 -0.4742 7.58621e-005 6.83498e-005 6.99288e-005 -1.42 -1.8761 1.4223 5.12452e-005 3.84566e-006 -0.000117581 -1.1471 -3.4929 2.6334 -1.07141e-005 -3.16005e-006 2.93666e-005 -0.823 -2.3 1.6571 -4.53966e-006 1.73133e-005 6.97385e-005 -2.2603 21.606 7.4023 -0.813441 0.157524 7.19953 -13.5187 -1.1334 -5.0155 -12.3232 10.6662 -25.1618 0.0994 -28.0499 -0.2431 9.6086 -42.2297 -2.17092 -0.0679 -23.3996 -0.1402 6.71356 -8.19321 -25.1953 -0.7932 -9.0691 2.5189 1.9441e-005 -1.95672e-005 -1.78394e-005 0.8272 -3.3923 0.5977 2.29776e-006 -1.17098e-005 -6.58123e-006 0.565 -2.3158 0.4082 -1.16622e-005 -4.63867e-006 2.73768e-005 -0.916 -9.2044 0.2193 1.44599e-005 -2.06638e-005 7.12983e-005 -0.0117 -4.1944 -0.0248 0.0129495 0.0023147 -0.000108647 -0.0071 -2.3249 -0.0142 0.00127018 -0.00338616 -0.00405277 -0.6113 -8.7231 -2.0637 3.79683e-005 -3.38079e-005 3.03401e-005 0.1927 -3.8059 -0.2383 0.0163527 0.00304917 -0.000851726 0.1091 -2.1688 -0.1362 1.75676e-005 -6.64256e-005 8.11344e-005 0.6151 -8.0947 -3.564 1.86584e-005 -3.29176e-005 2.06439e-005 0.4882 -2.341 -0.6462 0.014581 0.00368692 -0.00325281 0.3574 -1.7166 -0.4742 -5.69203e-006 1.3692e-005 -9.71486e-006 1.4199 -1.8761 1.4221 3.03296e-005 -4.88417e-005 -0.000208868 1.1472 -3.4929 2.6336 1.36354e-006 1.34533e-005 1.28042e-005 0.8229 -2.3 1.6571 2.55009e-005 -8.64013e-006 4.56785e-006 -9.412 3.9771 -0.7758 15.8271 10.6275 9.87189 -0.7531 -40.938 8.88179e-016 0.318049 0.00121373 4.27755 -2.22045e-016 -40.1986 0 -3.74078 -5.16493 -15.8479 -1.11022e-016 -4.4182 9.239 0.126761 0.861436 -0.0505817 9.4119 3.9773 -0.7758 20.4868 -10.0093 7.98734 0.7532 -40.9383 0 1.02936 20.2774 4.08931 0 -40.1986 -1.77636e-015 -8.86423 -2.9113 -0.0703139 -3.55271e-015 -4.4182 9.239 0.503292 -3.75786 0.0165159 
0.938062 -1.34849 1.2785 0 0 -0 4.77396e-015 78.7191 0 -11.3897 -3.04381 -12.0474 0 8.7983 -4.7612 3.68792 0.684425 -1.4602 0 8.0291 0.4195 7.39276 1.27328 -2.96167 0 9.9351 -2.2114 7.39278 1.27328 -2.96168 0 22.3885 -0.4656 0.924569 -4.79048 -8.16613 -0.0001 12.643 3.4389 14.0521 -0.267848 -0.410677 2.2603 21.606 7.4023 0.68104 -0.021695 -12.8065 13.5163 -1.1332 -5.0146 -7.96178 24.0227 30.5998 -0.0995 -28.05 -0.2431 -12.7697 -44.5212 12.7082 0.0679 -23.3996 -0.1402 -0.0765797 -0.461775 -1.82738 0.7932 -9.069 2.5189 -1.66932e-005 3.27219e-006 3.532e-005 -0.8272 -3.3923 0.5977 -1.20852e-005 -1.06826e-005 -4.11743e-006 -0.5649 -2.3158 0.4082 5.00577e-005 2.33946e-005 5.45405e-005 0.9159 -9.2044 0.2193 -2.80618e-005 -2.14641e-005 0.000136716 0.0117 -4.1944 -0.0248 -0.0127918 0.00234452 0.000141359 0.0071 -2.3249 -0.0142 1.57209e-005 -1.57014e-005 -2.2068e-006 0.6113 -8.7231 -2.0637 -1.88494e-005 -9.97822e-006 7.83478e-005 -0.1927 -3.8059 -0.2383 -0.0160918 0.003011 0.000843332 -0.1091 -2.1688 -0.1362 8.63882e-006 3.76715e-007 8.79279e-006 -0.6151 -8.0947 -3.5641 -9.61294e-006 -2.91548e-006 -2.60697e-005 -0.4882 -2.341 -0.6462 -0.0125543 0.00313048 0.00283103 -0.3575 -1.7167 -0.4742 7.17886e-006 -1.21831e-005 -1.02377e-005 -1.42 -1.8761 1.4223 5.10637e-005 -2.99745e-005 -7.10596e-005 -1.1471 -3.4929 2.6334 -2.04279e-005 1.68743e-005 4.13244e-005 -0.823 -2.3 1.6571 -3.49323e-006 3.50261e-005 0.000156051 -2.2603 21.606 7.4023 -0.83179 0.158395 7.17842 -13.5187 -1.1334 -5.0155 -12.2537 10.6853 -25.1771 0.0994 -28.0499 -0.2431 8.75536 -39.4764 -1.95595 -0.0679 -23.3996 -0.1402 6.21713 -6.79237 -21.8917 -0.7932 -9.0691 2.5189 1.7815e-005 -3.99464e-006 3.67275e-006 0.8272 -3.3923 0.5977 1.48518e-005 -1.912e-007 -4.37338e-006 0.565 -2.3158 0.4082 -1.7082e-005 -1.95588e-005 4.45607e-005 -0.916 -9.2044 0.2193 1.44095e-005 -1.43783e-005 0.000153415 -0.0117 -4.1944 -0.0248 0.0129515 0.0023123 -9.33538e-005 -0.0071 -2.3249 -0.0142 0.00136432 -0.003668 -0.00435134 -0.6113 -8.7231 -2.0637 4.06091e-005 -1.87297e-005 8.65837e-005 0.1927 -3.8059 -0.2383 0.0163355 0.00299074 -0.000741478 0.1091 -2.1688 -0.1362 -6.03953e-006 4.09438e-005 -3.22419e-005 0.6151 -8.0947 -3.564 1.80254e-005 -1.37642e-005 2.91826e-005 0.4882 -2.341 -0.6462 0.0146011 0.00361455 -0.00315642 0.3574 -1.7166 -0.4742 1.03867e-005 -2.00205e-005 3.49508e-005 1.4199 -1.8761 1.4221 3.63772e-005 -1.48975e-006 -7.77396e-006 1.1472 -3.4929 2.6336 -1.21957e-005 -1.40675e-006 2.71657e-005 0.8229 -2.3 1.6571 6.77746e-006 -2.02509e-005 4.28187e-005 -9.412 3.9771 -0.7758 15.7933 10.613 9.87784 -0.7531 -40.938 1.77636e-015 0.330945 0.00116306 4.31951 6.66134e-016 -40.1986 0 -3.74008 -5.15243 -15.8166 -8.88178e-016 -4.4182 9.239 0.126766 0.861436 -0.0505891 9.4119 3.9773 -0.7758 20.4644 -9.97108 7.9861 0.7532 -40.9383 -3.55271e-015 1.03861 20.2092 4.12788 3.55271e-015 -40.1986 -1.77636e-015 -8.87464 -2.8934 -0.0199951 0 -4.4182 9.239 0.509215 -3.80205 0.016907 
0.93759 -1.34486 1.2773 0 0 -0 4.77396e-015 78.7191 0 -11.3717 -3.01988 -12.1132 3.55271e-015 8.7983 -4.7612 3.69146 0.700897 -1.46304 0 8.0291 0.4195 7.40036 1.30591 -2.96846 -8.88178e-016 9.9351 -2.2114 7.40037 1.30591 -2.96846 3.55271e-015 22.3885 -0.4656 0.951895 -4.6405 -8.25456 -0.0001 12.643 3.4389 14.0922 -0.153539 -0.512473 2.2603 21.606 7.4023 0.630271 -0.0213698 -12.8025 13.5163 -1.1332 -5.0146 -8.01692 24.0589 30.6132 -0.0995 -28.05 -0.2431 -12.884 -44.6515 12.6491 0.0679 -23.3996 -0.1402 -0.0621022 -0.522931 -1.90485 0.7932 -9.069 2.5189 -1.14101e-005 -1.10661e-005 4.82998e-005 -0.8272 -3.3923 0.5977 8.23318e-007 3.04792e-006 2.21371e-006 -0.5649 -2.3158 0.4082 3.28217e-005 3.7927e-005 9.9104e-005 0.9159 -9.2044 0.2193 9.97945e-006 4.14983e-006 -3.45005e-005 0.0117 -4.1944 -0.0248 -0.0128283 0.00236454 0.000195061 0.0071 -2.3249 -0.0142 1.98945e-005 -1.49991e-005 3.13849e-006 0.6113 -8.7231 -2.0637 -1.94047e-005 -2.82835e-005 0.000148395 -0.1927 -3.8059 -0.2383 -0.0160204 0.00300366 0.000846324 -0.1091 -2.1688 -0.1362 8.17558e-006 -1.99529e-005 -1.69219e-006 -0.6151 -8.0947 -3.5641 5.47978e-006 -1.6439e-005 -1.32449e-005 -0.4882 -2.341 -0.6462 -0.0126033 0.00313479 0.00283853 -0.3575 -1.7167 -0.4742 2.59631e-005 -1.031e-005 -4.43975e-006 -1.42 -1.8761 1.4223 2.90029e-005 -3.5171e-005 2.16959e-005 -1.1471 -3.4929 2.6334 -2.49047e-005 3.44186e-005 7.80053e-005 -0.823 -2.3 1.6571 -1.68559e-006 -1.43091e-005 -4.10085e-006 -2.2603 21.606 7.4023 -0.848876 0.159674 7.15441 -13.5187 -1.1334 -5.0155 -12.1943 10.7041 -25.187 0.0994 -28.0499 -0.2431 7.97429 -36.7407 -1.71973 -0.0679 -23.3996 -0.1402 5.61639 -5.44052 -18.5675 -0.7932 -9.0691 2.5189 -5.32746e-006 -8.33575e-006 9.38672e-006 0.8272 -3.3923 0.5977 9.2122e-006 7.46564e-006 1.3785e-005 0.565 -2.3158 0.4082 -2.06029e-005 -6.22736e-005 9.62867e-005 -0.916 -9.2044 0.2193 6.33599e-006 -8.36025e-006 3.05311e-005 -0.0117 -4.1944 -0.0248 0.0129376 0.00227293 -8.12004e-005 -0.0071 -2.3249 -0.0142 0.0014406 -0.00394657 -0.0046344 -0.6113 -8.7231 -2.0637 1.45481e-005 -4.33185e-006 0.000180795 0.1927 -3.8059 -0.2383 0.0163254 0.00305956 -0.000918801 0.1091 -2.1688 -0.1362 -1.83779e-005 7.87984e-006 -3.72018e-005 0.6151 -8.0947 -3.564 -1.42489e-005 -2.06415e-005 6.11399e-005 0.4882 -2.341 -0.6462 0.0145813 0.00369492 -0.00329006 0.3574 -1.7166 -0.4742 2.68926e-005 -5.674e-005 0.000101592 1.4199 -1.8761 1.4221 4.5462e-005 1.52137e-005 -2.75373e-005 1.1472 -3.4929 2.6336 -3.57499e-005 -4.14964e-005 6.99347e-005 0.8229 -2.3 1.6571 9.75495e-006 -3.79269e-005 0.000123428 -9.412 3.9771 -0.7758 15.7589 10.5957 9.88357 -0.7531 -40.938 0 0.343856 0.001171 4.36122 -2.22045e-016 -40.1986 0 -3.73911 -5.14669 -15.7898 0 -4.4182 9.239 0.126755 0.861434 -0.0505591 9.4119 3.9773 -0.7758 20.4442 -9.93841 8.00564 0.7532 -40.9383 0 1.04786 20.1407 4.16654 -3.55272e-015 -40.1986 0 -8.88476 -2.87392 0.00626588 -3.55271e-015 -4.4182 9.239 0.511552 -3.81941 0.0170637 
